# WaveFront *.obj file (generated by Autodesk ATF)

mtllib 0727b0df-0835-4a48-943f-9804bcb0bea6.mtl

g Body1

v 2.000000 19.000000 0.000000
v -4.000000 11.000000 0.000000
v -4.000000 11.000000 3.000000
v 2.000000 19.000000 3.000000
v 8.000000 11.000000 0.000000
v 8.000000 11.000000 3.000000
v 4.000000 11.000000 0.000000
v 4.000000 11.000000 3.000000
v 4.000000 0.000000 0.000000
v 4.000000 0.000000 3.000000
v 0.000000 0.000000 0.000000
v 0.000000 0.000000 3.000000
v 0.000000 11.000000 0.000000
v 0.000000 11.000000 3.000000
vt 0.000000 0.000000 0.000000
vt 10.000000 0.000000 0.000000
vt 0.000000 3.000000 0.000000
vt 10.000000 3.000000 0.000000
vt 0.000000 0.000000 0.000000
vt 10.000000 0.000000 0.000000
vt 0.000000 3.000000 0.000000
vt 10.000000 3.000000 0.000000
vt 0.000000 0.000000 0.000000
vt 4.000000 0.000000 0.000000
vt 0.000000 3.000000 0.000000
vt 4.000000 3.000000 0.000000
vt 0.000000 0.000000 0.000000
vt 11.000000 0.000000 0.000000
vt 0.000000 3.000000 0.000000
vt 11.000000 3.000000 0.000000
vt 0.000000 0.000000 0.000000
vt 4.000000 0.000000 0.000000
vt 0.000000 3.000000 0.000000
vt 4.000000 3.000000 0.000000
vt 0.000000 0.000000 0.000000
vt 11.000000 0.000000 0.000000
vt 0.000000 3.000000 0.000000
vt 11.000000 3.000000 0.000000
vt 0.000000 0.000000 0.000000
vt 4.000000 0.000000 0.000000
vt 0.000000 3.000000 0.000000
vt 4.000000 3.000000 0.000000
vt -6.000000 1.500000 0.000000
vt -2.000000 1.500000 0.000000
vt 0.000000 9.500000 0.000000
vt 2.000000 1.500000 0.000000
vt 6.000000 1.500000 0.000000
vt -2.000000 -9.500000 0.000000
vt 2.000000 -9.500000 0.000000
vt 6.000000 1.500000 0.000000
vt -0.000000 9.500000 0.000000
vt 2.000000 1.500000 0.000000
vt -2.000000 1.500000 0.000000
vt 2.000000 -9.500000 0.000000
vt -2.000000 -9.500000 0.000000
vt -6.000000 1.500000 0.000000
vn -0.800000 0.600000 0.000000
vn -0.800000 0.600000 0.000000
vn -0.800000 0.600000 0.000000
vn -0.800000 0.600000 0.000000
vn 0.800000 0.600000 -0.000000
vn 0.800000 0.600000 -0.000000
vn 0.800000 0.600000 -0.000000
vn 0.800000 0.600000 -0.000000
vn 0.000000 -1.000000 0.000000
vn 0.000000 -1.000000 0.000000
vn 0.000000 -1.000000 0.000000
vn 0.000000 -1.000000 0.000000
vn 1.000000 0.000000 0.000000
vn 1.000000 0.000000 0.000000
vn 1.000000 0.000000 0.000000
vn 1.000000 0.000000 0.000000
vn 0.000000 -1.000000 0.000000
vn 0.000000 -1.000000 0.000000
vn 0.000000 -1.000000 0.000000
vn 0.000000 -1.000000 0.000000
vn -1.000000 0.000000 0.000000
vn -1.000000 0.000000 0.000000
vn -1.000000 0.000000 0.000000
vn -1.000000 0.000000 0.000000
vn 0.000000 -1.000000 0.000000
vn 0.000000 -1.000000 0.000000
vn 0.000000 -1.000000 0.000000
vn 0.000000 -1.000000 0.000000
vn 0.000000 0.000000 1.000000
vn 0.000000 0.000000 1.000000
vn 0.000000 0.000000 1.000000
vn 0.000000 0.000000 1.000000
vn 0.000000 0.000000 1.000000
vn 0.000000 0.000000 1.000000
vn 0.000000 0.000000 1.000000
vn -0.000000 -0.000000 -1.000000
vn -0.000000 -0.000000 -1.000000
vn -0.000000 -0.000000 -1.000000
vn -0.000000 -0.000000 -1.000000
vn -0.000000 -0.000000 -1.000000
vn -0.000000 -0.000000 -1.000000
vn -0.000000 -0.000000 -1.000000
usemtl Steel_-_Satin
f 1/1/1 2/2/2 4/3/3
f 4/3/3 2/2/2 3/4/4
f 5/5/5 1/6/6 6/7/7
f 6/7/7 1/6/6 4/8/8
f 7/9/9 5/10/10 8/11/11
f 8/11/11 5/10/10 6/12/12
f 9/13/13 7/14/14 10/15/15
f 10/15/15 7/14/14 8/16/16
f 11/17/17 9/18/18 12/19/19
f 12/19/19 9/18/18 10/20/20
f 13/21/21 11/22/22 14/23/23
f 14/23/23 11/22/22 12/24/24
f 2/25/25 13/26/26 3/27/27
f 3/27/27 13/26/26 14/28/28
f 3/29/29 14/30/30 4/31/31
f 4/31/31 14/30/30 8/32/32
f 4/31/31 8/32/32 6/33/33
f 12/34/34 10/35/35 14/30/30
f 14/30/30 10/35/35 8/32/32
f 2/36/36 1/37/37 13/38/38
f 13/38/38 1/37/37 7/39/39
f 13/38/38 7/39/39 11/40/40
f 11/40/40 7/39/39 9/41/41
f 1/37/37 5/42/42 7/39/39

# 14 vertices
# 42 texture params
# 42 normals
# 24 facets

# 1 groups
